<svg width="40" height="40" viewBox="0 0 40 40" fill="none" xmlns="http://www.w3.org/2000/svg">
    <path
        d="M36.8932 0H3.1068C1.39096 0 0 1.64677 0 3.67816V36.3218C0 38.3532 1.39096 40 3.1068 40H36.8932C38.609 40 40 38.3532 40 36.3218V3.67816C40 1.64677 38.609 0 36.8932 0Z"
        fill="black" />
    <path
        d="M7.50212 22.6694C7.64402 13.9605 15.3293 7.63412 23.8158 6.79017C25.8822 6.58547 29.3783 6.528 31.966 7.48906L29.5176 12.8482C27.8085 12.3323 25.7908 12.1853 23.7794 12.29C15.123 12.6454 9.67537 18.6714 9.55389 24.7642C9.49001 27.9996 10.8066 31.1155 13.4208 32.9174L13.2501 33.0904C9.45598 30.8502 7.42489 27.3256 7.50212 22.6694Z"
        fill="white" />
    <path
        d="M11.5311 24.7139C12.3895 19.6284 17.1635 15.7438 24.6653 16.2082C25.7042 16.2731 26.8836 16.3939 27.9363 16.6676L25.7678 21.4117C25.0928 21.3017 24.0391 21.079 23.1345 21.0212C17.2243 20.6544 13.5878 23.5556 12.9846 27.2551C12.6607 29.2415 13.3472 31.4612 15.0602 32.8568L14.8884 33.0134C11.9552 31.0875 11.0051 27.8229 11.5311 24.7139Z"
        fill="white" />
    <path
        d="M15.0735 27.2889C16.5093 24.4244 20.8361 23.4969 24.6993 24.6102L23.5668 27.0734C20.4958 26.235 16.9405 26.8044 15.9215 28.9048C15.3675 30.0479 15.6765 31.6187 16.3022 32.7273L16.1875 32.8643C14.7431 31.3314 14.2177 28.998 15.0735 27.2889Z"
        fill="white" />
</svg>