<svg width="200" height="200" viewBox="0 0 200 200" fill="none" xmlns="http://www.w3.org/2000/svg">
<path d="M184.466 0H15.534C6.9548 0 0 8.23384 0 18.3908V181.609C0 191.766 6.9548 200 15.534 200H184.466C193.045 200 200 191.766 200 181.609V18.3908C200 8.23384 193.045 0 184.466 0Z" fill="black"/>
<path d="M28.1003 113.842C28.9429 70.3911 74.5787 38.827 124.972 34.6162C137.242 33.5949 158.003 33.3082 173.369 38.1032L158.83 64.8414C148.681 62.2672 136.7 61.5342 124.756 62.0564C73.3537 63.8294 41.0051 93.8949 40.2838 124.294C39.9045 140.436 47.7227 155.982 63.2455 164.972L62.2319 165.835C39.7024 154.658 27.6416 137.073 28.1003 113.842Z" fill="white"/>
<path d="M52.0244 124.043C57.122 98.6697 85.4705 79.2883 130.017 81.6052C136.185 81.9291 143.189 82.532 149.44 83.8974L136.563 107.567C132.555 107.018 126.298 105.907 120.927 105.619C85.8312 103.789 64.2375 118.263 60.6557 136.721C58.7326 146.632 62.8088 157.707 72.9807 164.67L71.9609 165.451C54.5429 155.842 48.9012 139.554 52.0244 124.043Z" fill="white"/>
<path d="M73.0597 136.89C81.5853 122.598 107.278 117.97 130.218 123.525L123.493 135.814C105.257 131.632 84.1457 134.472 78.0951 144.952C74.8056 150.655 76.64 158.492 80.3556 164.023L79.6746 164.707C71.0978 157.059 67.9777 145.417 73.0597 136.89Z" fill="white"/>
</svg>
