<svg width="1850" height="850" viewBox="0 0 1850 850" fill="none" xmlns="http://www.w3.org/2000/svg">
<path d="M576.165 175H153.835C132.387 175 115 195.585 115 220.977V629.023C115 654.415 132.387 675 153.835 675H576.165C597.613 675 615 654.415 615 629.023V220.977C615 195.585 597.613 175 576.165 175Z" fill="black"/>
<path d="M185.031 459.605C187.131 350.978 300.865 272.067 426.454 261.541C457.035 258.987 508.774 258.271 547.069 270.258L510.835 337.103C485.543 330.668 455.683 328.835 425.916 330.141C297.812 334.573 217.193 409.737 215.395 485.734C214.45 526.09 233.934 564.954 272.62 587.43L270.094 589.588C213.946 561.646 183.888 517.683 185.031 459.605Z" fill="white"/>
<path d="M244.656 485.106C257.36 421.674 328.01 373.221 439.027 379.013C454.401 379.823 471.855 381.33 487.434 384.743L455.343 443.917C445.354 442.546 429.76 439.768 416.374 439.047C328.909 434.471 275.093 470.659 266.166 516.803C261.374 541.58 271.532 569.266 296.883 586.674L294.341 588.627C250.932 564.605 236.872 523.885 244.656 485.106Z" fill="white"/>
<path d="M297.08 517.225C318.327 481.495 382.359 469.926 439.53 483.812L422.77 514.536C377.323 504.079 324.708 511.181 309.629 537.379C301.431 551.637 306.002 571.23 315.262 585.058L313.565 586.767C292.19 567.646 284.414 538.542 297.08 517.225Z" fill="white"/>
<path d="M685.498 465.812H685.153C685.153 474.233 684.808 482.991 685.153 491.749C685.498 502.528 686.188 513.307 686.877 524.086C686.877 527.791 687.912 528.802 691.36 529.475C698.601 531.16 705.497 531.496 712.738 531.496C731.358 530.823 749.978 532.17 768.598 531.496C776.184 531.16 779.632 531.833 787.218 530.486C794.115 529.139 796.528 525.433 796.528 515.328C795.839 508.928 796.184 506.233 796.184 498.486C796.184 487.37 788.253 483.665 781.357 484.002C776.529 484.339 753.427 483.665 744.117 483.665C728.6 484.002 731.014 486.023 731.014 470.191C731.014 457.391 731.358 440.886 731.358 427.749C731.358 420.676 732.048 418.318 738.944 418.318H782.046C788.942 419.328 793.77 414.612 793.77 407.539C793.77 400.465 794.46 400.128 794.46 393.055L793.425 382.949C792.735 377.223 790.667 375.202 784.805 375.202C781.012 375.202 777.219 375.539 773.426 375.876C758.599 376.886 751.702 374.865 737.22 375.876C732.393 375.876 731.703 375.202 731.358 370.823C729.979 357.686 731.358 343.202 732.738 330.065C733.082 324.676 734.462 323.665 739.634 323.328L788.253 322.991C794.804 322.318 796.873 322.655 796.528 316.255C795.839 306.486 796.873 296.381 795.839 286.613C795.149 281.223 793.425 280.213 787.218 280.213C776.874 280.549 774.46 280.549 764.116 281.223C753.771 281.56 712.394 281.56 702.394 281.56C687.912 281.56 686.877 280.549 686.533 297.728C685.843 311.202 686.188 325.013 686.188 338.823C686.188 362.402 684.808 446.949 685.498 465.812ZM831.01 315.244C830.665 336.128 832.734 488.718 832.389 499.833C832.389 510.275 832.389 520.718 832.734 531.16C832.734 532.844 833.768 534.528 835.492 534.528C859.629 535.539 883.422 533.518 907.559 533.854C915.489 534.191 923.42 533.854 931.006 533.854C938.592 533.518 939.282 530.486 938.937 524.423C938.592 514.991 938.592 506.57 938.592 497.475C938.247 492.76 935.489 491.075 931.351 491.075C917.214 491.412 903.076 490.739 888.939 491.412C886.525 491.749 884.111 491.749 881.698 491.749C877.56 491.412 876.525 490.402 876.181 486.023V480.97C875.146 453.012 877.215 424.044 877.215 396.086C876.87 372.507 877.215 351.286 876.87 330.402C876.87 321.307 876.87 312.213 876.525 303.455C876.181 298.065 876.525 292.339 875.146 286.949C874.457 284.928 873.422 282.234 871.008 282.234H838.596C833.079 282.234 831.355 285.939 831.01 291.328V315.244ZM1109.62 321.981C1109.96 310.865 1109.62 301.77 1109.62 290.991C1109.62 278.528 1086.52 279.876 1078.24 280.213C1041.35 282.57 1006.18 305.476 989.28 336.802C984.452 345.897 981.004 355.328 978.591 365.097C972.729 388.002 972.384 412.255 975.142 435.497C977.556 457.391 983.418 479.286 997.211 496.802C1021 527.454 1064.79 538.233 1102.38 532.507C1104.1 532.17 1105.83 531.833 1107.21 530.823C1108.24 530.149 1109.28 528.802 1109.28 527.454L1110.31 508.254C1110.65 502.191 1110.31 502.528 1110.31 496.465C1110.31 488.381 1093.07 494.444 1082.38 494.444C1072.04 494.444 1061 494.107 1051.69 489.391C1035.14 480.297 1025.83 462.107 1020.66 444.928C1014.8 426.402 1013.42 406.528 1016.86 387.665C1021 363.076 1033.07 334.781 1059.62 326.36C1074.79 321.307 1091 322.991 1106.17 324.676C1108.24 325.013 1109.62 323.665 1109.62 321.981Z" fill="black"/>
<path d="M1277.11 280L1146.69 534.814H1407.54L1277.11 280ZM1277.11 327.488L1350.63 471.11H1252.2L1263.07 449.875H1315.45L1277.11 374.963L1217.04 492.346H1361.49L1372.36 513.578H1181.87L1277.11 327.488Z" fill="black"/>
<path d="M1513.78 280.043C1507.26 280.378 1500.74 281.384 1494.22 283.395C1480.15 288.088 1467.45 297.475 1458.87 309.544C1451.32 320.607 1448.23 333.681 1447.2 346.755C1446.51 356.812 1447.54 367.205 1452.35 376.256C1457.5 385.978 1466.42 394.359 1473.97 402.405C1480.83 409.445 1487.7 416.485 1495.25 422.854C1502.11 429.224 1510 434.253 1516.86 440.957C1526.82 450.679 1530.59 472.805 1523.39 484.874C1514.81 498.283 1494.56 500.295 1481.17 495.937C1474.31 493.59 1468.13 488.561 1462.3 484.538C1458.87 482.192 1454.75 481.186 1452.35 485.209C1450.98 487.22 1450.29 489.567 1449.6 491.578C1447.2 499.959 1444.11 507.67 1443.77 516.721C1443.43 527.114 1463.67 530.131 1471.22 531.807C1504.85 539.518 1545.35 533.483 1562.85 500.965C1566.28 494.26 1568.68 487.22 1570.06 479.845C1570.4 477.163 1570.74 474.816 1570.74 472.135C1572.12 450.679 1563.19 432.576 1549.81 416.485C1535.4 399.053 1517.21 386.984 1500.39 371.898C1490.1 362.511 1486.32 347.761 1489.41 334.351C1492.5 319.936 1509.32 316.249 1522.01 319.936C1525.79 320.942 1528.88 322.618 1532.31 324.629C1534.37 325.635 1536.43 326.976 1539.17 326.976C1543.98 327.311 1544.66 323.624 1545.69 319.936C1548.09 311.555 1552.21 304.85 1553.93 296.805C1555.64 287.753 1548.09 286.077 1540.54 283.73C1531.62 281.384 1523.04 279.707 1513.78 280.043ZM1648.64 496.607C1648.99 506.999 1648.99 517.392 1649.33 527.784C1649.33 532.478 1649.67 533.148 1654.48 533.148H1685.36C1691.88 533.148 1690.51 522.42 1690.17 516.721L1691.2 328.988C1691.2 323.959 1692.91 322.283 1699.78 322.283H1729.98C1737.18 322.283 1735.47 310.214 1735.47 301.833C1735.47 294.458 1738.21 281.719 1729.98 281.719C1724.14 281.719 1668.2 281.719 1645.21 282.054C1633.89 282.054 1624.62 281.719 1613.3 281.719C1604.72 281.719 1605.06 288.424 1605.06 303.174C1605.06 312.561 1604.72 321.948 1612.95 321.948C1617.76 321.948 1637.32 321.948 1642.81 322.283C1646.24 322.283 1648.64 323.289 1649.33 326.976C1649.33 327.982 1649.67 328.988 1649.67 329.993C1649.67 354.131 1647.96 466.436 1648.64 496.607Z" fill="black"/>
</svg>
