<svg width="800" height="800" viewBox="0 0 800 800" fill="none" xmlns="http://www.w3.org/2000/svg">
<g clip-path="url(#clip0_22_62)">
<path d="M737.864 0H62.136C27.8192 0 0 32.9354 0 73.5632V726.436C0 767.064 27.8192 800 62.136 800H737.864C772.18 800 800 767.064 800 726.436V73.5632C800 32.9354 772.18 0 737.864 0Z" fill="black"/>
<path d="M112.401 455.368C115.772 281.564 298.315 155.308 499.888 138.465C548.968 134.38 632.012 133.233 693.476 152.413L635.32 259.366C594.724 249.069 546.8 246.137 499.024 248.226C293.415 255.318 164.02 375.58 161.135 497.176C159.618 561.744 190.891 623.928 252.982 659.888L248.928 663.34C158.81 618.632 110.566 548.292 112.401 455.368Z" fill="white"/>
<path d="M208.098 496.172C228.488 394.679 341.882 317.153 520.068 326.421C544.74 327.716 572.756 330.128 597.76 335.59L546.252 430.268C530.22 428.072 505.192 423.628 483.708 422.476C343.325 415.156 256.95 473.052 242.623 546.884C234.931 586.528 251.235 630.828 291.923 658.68L287.844 661.804C218.172 623.368 195.605 558.216 208.098 496.172Z" fill="white"/>
<path d="M292.239 547.56C326.341 490.392 429.112 471.88 520.872 494.1L493.972 543.256C421.028 526.528 336.583 537.888 312.38 579.808C299.222 602.62 306.56 633.968 321.422 656.092L318.698 658.828C284.391 628.236 271.911 581.668 292.239 547.56Z" fill="white"/>
</g>
<defs>
<clipPath id="clip0_22_62">
<rect width="800" height="800" fill="white"/>
</clipPath>
</defs>
</svg>
