<svg width="380" height="480" viewBox="0 0 380 480" fill="none" xmlns="http://www.w3.org/2000/svg">
<path d="M249.054 127H129.952C123.903 127 119 132.805 119 139.966V255.039C119 262.2 123.903 268.005 129.952 268.005H249.054C255.102 268.005 260.005 262.2 260.005 255.039V139.966C260.005 132.805 255.102 127 249.054 127Z" fill="black"/>
<path d="M138.75 208.262C139.342 177.628 171.416 155.374 206.834 152.405C215.458 151.685 230.049 151.483 240.848 154.864L230.63 173.715C223.497 171.9 215.076 171.383 206.682 171.751C170.555 173.001 147.82 194.198 147.313 215.63C147.046 227.011 152.541 237.971 163.451 244.31L162.738 244.918C146.904 237.038 138.427 224.64 138.75 208.262Z" fill="white"/>
<path d="M155.564 215.453C159.147 197.565 179.071 183.9 210.379 185.534C214.715 185.762 219.637 186.187 224.031 187.15L214.98 203.838C212.164 203.451 207.766 202.667 203.991 202.464C179.325 201.174 164.148 211.379 161.631 224.392C160.279 231.38 163.144 239.187 170.293 244.097L169.576 244.647C157.334 237.873 153.369 226.389 155.564 215.453Z" fill="white"/>
<path d="M170.348 224.511C176.34 214.435 194.398 211.172 210.521 215.088L205.794 223.753C192.978 220.804 178.14 222.807 173.887 230.195C171.575 234.216 172.865 239.741 175.476 243.641L174.998 244.123C168.97 238.731 166.777 230.523 170.348 224.511Z" fill="white"/>
<path d="M74.1096 336.881H74.0337C74.0337 338.733 73.9579 340.66 74.0337 342.587C74.1096 344.959 74.2613 347.33 74.413 349.702C74.413 350.517 74.6406 350.739 75.3993 350.887C76.9924 351.258 78.5096 351.332 80.1028 351.332C84.1994 351.184 88.296 351.48 92.3926 351.332C94.0615 351.258 94.8202 351.406 96.4892 351.11C98.0064 350.813 98.5375 349.998 98.5375 347.775C98.3857 346.367 98.4616 345.774 98.4616 344.069C98.4616 341.624 96.7167 340.808 95.1995 340.883C94.1374 340.957 89.0546 340.808 87.0063 340.808C83.5924 340.883 84.1235 341.327 84.1235 337.844C84.1235 335.028 84.1994 331.397 84.1994 328.506C84.1994 326.95 84.3511 326.431 85.8683 326.431H95.3512C96.8685 326.654 97.9305 325.616 97.9305 324.06C97.9305 322.504 98.0823 322.43 98.0823 320.873L97.8547 318.65C97.703 317.39 97.2478 316.945 95.9581 316.945C95.1236 316.945 94.2891 317.02 93.4546 317.094C90.1925 317.316 88.6753 316.871 85.489 317.094C84.4269 317.094 84.2752 316.945 84.1994 315.982C83.8959 313.092 84.1994 309.905 84.5028 307.015C84.5787 305.829 84.8821 305.607 86.0201 305.533L96.7167 305.459C98.1581 305.31 98.6133 305.384 98.5375 303.976C98.3857 301.827 98.6133 299.604 98.3857 297.455C98.234 296.269 97.8547 296.047 96.4892 296.047C94.2133 296.121 93.6822 296.121 91.4063 296.269C89.1304 296.343 80.0269 296.343 77.8269 296.343C74.6406 296.343 74.413 296.121 74.3372 299.9C74.1854 302.865 74.2613 305.903 74.2613 308.942C74.2613 314.129 73.9579 332.731 74.1096 336.881ZM106.124 303.754C106.048 308.349 106.503 341.92 106.427 344.366C106.427 346.663 106.427 348.96 106.503 351.258C106.503 351.628 106.731 351.999 107.11 351.999C112.42 352.221 117.655 351.777 122.965 351.851C124.71 351.925 126.455 351.851 128.124 351.851C129.793 351.777 129.945 351.11 129.869 349.776C129.793 347.701 129.793 345.848 129.793 343.847C129.717 342.809 129.11 342.439 128.2 342.439C125.089 342.513 121.979 342.365 118.869 342.513C118.338 342.587 117.807 342.587 117.276 342.587C116.365 342.513 116.138 342.291 116.062 341.327V340.216C115.834 334.065 116.289 327.691 116.289 321.54C116.214 316.353 116.289 311.684 116.214 307.089C116.214 305.088 116.214 303.087 116.138 301.16C116.062 299.975 116.138 298.715 115.834 297.529C115.682 297.084 115.455 296.491 114.924 296.491H107.793C106.579 296.491 106.2 297.307 106.124 298.492V303.754ZM167.421 305.236C167.497 302.791 167.421 300.79 167.421 298.418C167.421 295.676 162.338 295.973 160.517 296.047C152.4 296.566 144.662 301.605 140.945 308.497C139.883 310.498 139.124 312.573 138.593 314.722C137.303 319.762 137.228 325.097 137.834 330.211C138.365 335.028 139.655 339.845 142.69 343.699C147.924 350.443 157.559 352.814 165.828 351.554C166.207 351.48 166.587 351.406 166.89 351.184C167.118 351.036 167.345 350.739 167.345 350.443L167.573 346.218C167.649 344.884 167.573 344.959 167.573 343.625C167.573 341.846 163.78 343.18 161.428 343.18C159.152 343.18 156.724 343.106 154.676 342.068C151.035 340.067 148.986 336.066 147.848 332.286C146.559 328.21 146.255 323.838 147.014 319.687C147.924 314.278 150.579 308.052 156.421 306.2C159.759 305.088 163.324 305.459 166.662 305.829C167.118 305.903 167.421 305.607 167.421 305.236Z" fill="black"/>
<path d="M204.271 296L175.577 352.062H232.966L204.271 296ZM204.271 306.448L220.445 338.046H198.791L201.182 333.374H212.705L204.271 316.893L191.054 342.718H222.836L225.227 347.39H183.316L204.271 306.448Z" fill="black"/>
<path d="M256.34 296.009C254.905 296.083 253.471 296.304 252.036 296.747C248.941 297.78 246.147 299.845 244.259 302.5C242.598 304.934 241.919 307.81 241.692 310.687C241.541 312.9 241.768 315.186 242.825 317.177C243.957 319.316 245.92 321.16 247.582 322.93C249.092 324.479 250.602 326.028 252.263 327.43C253.773 328.831 255.509 329.937 257.019 331.412C259.209 333.551 260.039 338.419 258.454 341.074C256.566 344.025 252.112 344.467 249.167 343.508C247.657 342.992 246.298 341.886 245.014 341.001C244.259 340.484 243.353 340.263 242.825 341.148C242.523 341.591 242.372 342.107 242.221 342.55C241.692 344.393 241.013 346.09 240.937 348.081C240.862 350.368 245.316 351.031 246.978 351.4C254.377 353.097 263.286 351.769 267.137 344.615C267.892 343.14 268.42 341.591 268.722 339.968C268.798 339.378 268.873 338.862 268.873 338.272C269.175 333.551 267.212 329.568 264.267 326.028C261.096 322.193 257.095 319.538 253.395 316.219C251.13 314.153 250.3 310.908 250.979 307.958C251.659 304.786 255.358 303.975 258.152 304.786C258.982 305.008 259.662 305.376 260.417 305.819C260.87 306.04 261.323 306.335 261.927 306.335C262.984 306.409 263.135 305.598 263.361 304.786C263.89 302.942 264.796 301.467 265.173 299.697C265.551 297.706 263.89 297.337 262.229 296.821C260.266 296.304 258.378 295.936 256.34 296.009ZM286.012 343.656C286.088 345.942 286.088 348.229 286.163 350.515C286.163 351.548 286.239 351.695 287.296 351.695H294.091C295.525 351.695 295.223 349.335 295.148 348.081L295.374 306.778C295.374 305.671 295.752 305.303 297.262 305.303H303.906C305.492 305.303 305.114 302.647 305.114 300.804C305.114 299.181 305.718 296.378 303.906 296.378C302.622 296.378 290.316 296.378 285.257 296.452C282.765 296.452 280.727 296.378 278.235 296.378C276.348 296.378 276.423 297.853 276.423 301.099C276.423 303.164 276.348 305.229 278.16 305.229C279.217 305.229 283.52 305.229 284.728 305.303C285.483 305.303 286.012 305.524 286.163 306.335C286.163 306.557 286.239 306.778 286.239 306.999C286.239 312.31 285.861 337.018 286.012 343.656Z" fill="black"/>
</svg>
